<?xml version="1.0" encoding="UTF-8"?>
<!-- Generator: Adobe Illustrator 20.1.0, SVG Export Plug-In . SVG Version: 6.00 Build 0)  -->
<svg version="1.1" id="Layer_1" xmlns="http://www.w3.org/2000/svg" xmlns:xlink="http://www.w3.org/1999/xlink" x="0px" y="0px" viewBox="0 0 54 54" style="enable-background:new 0 0 54 54;" xml:space="preserve">
<style type="text/css">
	.st0{fill:#999999;}
</style>
<g>
	<path class="st0" d="M49.2,12.3H19.7c-0.9,0-1.8,0.6-1.9,1.5C17.7,15,18.5,16,19.6,16h24.9c1.3,0,2.1,1.2,1.7,2.4L42.5,29   c-0.3,0.7-0.9,1.2-1.7,1.2H20.5c-0.8,0-1.5-0.5-1.8-1.3L12.7,7c-0.1-0.4-0.5-0.6-0.9-0.6H4.9C4,6.4,3.2,7,3,7.9   C2.8,9,3.7,10,4.8,10h3.5c0.8,0,1.5,0.5,1.8,1.3l6.3,22.6l0,0v0h5.2h18.7h4.3v0l0,0l6.3-17.6c0.1-0.2,0.1-0.4,0.1-0.6v-1.5   C51,13.1,50.2,12.3,49.2,12.3z"/>
	<path class="st0" d="M14.7,40.8c0,3.8,3.1,6.9,6.9,6.9c3.8,0,6.9-3.1,6.9-6.9s-3.1-6.9-6.9-6.9C17.8,33.9,14.7,37,14.7,40.8z    M21.6,37.9c1.6,0,2.9,1.3,2.9,2.9c0,1.6-1.3,2.9-2.9,2.9c-1.6,0-2.9-1.3-2.9-2.9C18.7,39.2,20,37.9,21.6,37.9z"/>
	<path class="st0" d="M33.4,40.8c0,3.8,3.1,6.9,6.9,6.9c3.8,0,6.9-3.1,6.9-6.9s-3.1-6.9-6.9-6.9C36.5,33.9,33.4,37,33.4,40.8z    M40.3,37.9c1.6,0,2.9,1.3,2.9,2.9c0,1.6-1.3,2.9-2.9,2.9c-1.6,0-2.9-1.3-2.9-2.9C37.3,39.2,38.6,37.9,40.3,37.9z"/>
</g>
</svg>